<?xml version="1.0" encoding="utf-8"?>

<svg version="1.1" class="icon-btn" xmlns="http://www.w3.org/2000/svg" xmlns:xlink="http://www.w3.org/1999/xlink" x="0px" y="0px" viewBox="0 0 512 512" xml:space="preserve">
  <path d="M94.1,466c-7.6,0-13.4-6.9-12-14.5c13.3-73.8,77.3-135.9,151.2-146.1c90.2-12.4,176,50.4,196.5,145.8l0,0
    c1.6,7.6-4.1,14.8-11.8,14.8H94.1L94.1,466z M271.6,267.4c-11.1,0.8-22.3,0.8-33.4,0c-8-0.5-16.2-1.3-24.1-2.7
    c-36.2-6.8-54.6-27.2-58.9-68.1c-3.3-31.8-0.1-63.6,13.1-93.4c17-38.7,47.5-57.6,88.9-57.2c40.7,0.4,70.5,19.7,86.6,57.7
    c14.3,34.1,17.5,70,10.5,106.3c-6.1,32-26.7,50.7-58.9,55.3C287.6,266.2,279.6,266.8,271.6,267.4z"
  />
</svg>
