<?xml version="1.0" encoding="utf-8"?>

<svg version="1.1" class="brand-logo" xmlns="http://www.w3.org/2000/svg" xmlns:xlink="http://www.w3.org/1999/xlink" x="0px" y="0px" viewBox="0 0 560 560" xml:space="preserve">
  <path d="M389,431.1c-10,5.5-19.6,11.5-29.8,16.2C250.5,497.7,123.7,432.7,100.9,315c-19.3-99.2,45.3-195.7,144.4-215.8
    c97.9-19.9,194.9,42.8,216.6,140.1c0.8,3.6-0.1,5.2-3.5,6.8c-39.4,18.8-87.9,11.7-120-18.2c-11.3-10.5-23.7-18.7-38.8-22.5
    c-43.5-10.7-88.1,19.8-93.6,64.1c-5.2,42.3,22.4,79.7,64.3,86.1c23.5,3.6,44.8-2.5,62.4-18.7c13.7-12.6,28.5-23,46.4-28.4
    c16.7-5,33.7-7.5,50.6-2.3c14.6,4.4,26.4,12.8,30.7,28.6c1,3.6,1.4,7.6,1.5,11.3c0.1,26.7,0.1,53.3,0,80
    c-0.1,18.8-10.7,32.8-28,37.2c-19.5,4.9-40-8-43.8-27.8C389.7,434,389.3,432.4,389,431.1z"
  />
</svg>
