<?xml version="1.0" encoding="utf-8"?>
<!-- Generator: Adobe Illustrator 24.1.1, SVG Export Plug-In . SVG Version: 6.00 Build 0)  -->
<svg version="1.1" id="Layer_1" xmlns="http://www.w3.org/2000/svg" xmlns:xlink="http://www.w3.org/1999/xlink" x="0px" y="0px"
	 viewBox="0 0 512 512" style="enable-background:new 0 0 512 512;" xml:space="preserve">
<path d="M455.1,250.3c0.3,39.2-10.4,72.4-28.6,103.5c-1.5,2.6-2.6,5.9-2.3,8.8c1.8,22.7,5.1,45.4,13.3,66.9
	c4,10.3,10.1,19.8,15.5,29.4c1.8,3.2,3.8,5.9,1.8,9.7c-2,3.8-5.4,4.1-9,3.5c-32.4-5.9-64.1-14.1-93-30.3
	c-11.1-6.2-20.4-7.1-32.8-2.9C209.7,476.3,93.5,413.7,63,301.3C37,205.2,88.9,102,181.7,65.4c108.3-42.7,227.8,13.5,264,124.1
	C452.4,210.2,455.4,231.4,455.1,250.3z"/>
</svg>
