<?xml version="1.0" encoding="utf-8"?>

<svg version="1.1" class="icon-btn" xmlns="http://www.w3.org/2000/svg" xmlns:xlink="http://www.w3.org/1999/xlink" x="0px" y="0px" viewBox="0 0 512 512" xml:space="preserve">
  <path d="M443.8,45.4H68.2c-6.6,0-12.7,3.7-15.7,9.7c-3.1,6-2.5,13.2,1.4,18.6l137.5,193.7l0.1,0.2
    c5,6.7,7.7,14.9,7.7,23.3v158c-0.1,9.7,7.7,17.6,17.4,17.7h0.1c2.4,0,4.7-0.5,6.9-1.4l77.3-29.5c7.1-2.3,11.9-9,11.6-16.5V291
    c0-8.4,2.7-16.6,7.7-23.3l0.1-0.2L458.2,73.6c3.9-5.4,4.4-12.6,1.4-18.5C456.5,49.1,450.5,45.4,443.8,45.4z"
  />
</svg>
