<?xml version="1.0" encoding="utf-8"?>

<svg version="1.1" class="icon-btn" xmlns="http://www.w3.org/2000/svg" xmlns:xlink="http://www.w3.org/1999/xlink" x="0px" y="0px" viewBox="0 0 512 512" xml:space="preserve">
  <path d="M369.4,51.6c-26.4-0.6-48.1,9.2-67.6,24.7c-12.9,10.3-24,22.1-33.5,35.7c-2.8,4.1-5.4,8.1-8.3,12.2
    c-2.6,3.8-4.6,3.7-7.5,0c-8.5-11.1-15.7-23.2-25.8-33.1c-11.6-11.4-23.8-21.5-38.3-29.1c-20.2-10.6-41.7-12.4-63.6-9.1
    c-12.5,1.9-24.6,6.9-35.6,14.2c-10,6.6-19.5,13.8-27.2,23c-7.9,9.5-14.4,19.9-19.7,31c-6.1,12.8-8.8,26.4-10.5,40.4
    c-1.6,13.9-0.3,27.6,1.5,41.2c2.1,15,5.2,30.1,11.5,44.1c6.7,15.2,12.5,30.8,20.3,45.4c8.1,15.2,17.9,29.6,27.5,44
    c6.6,9.8,14,19.1,21.4,28.3c5.1,6.4,10.7,12.5,16.3,18.3c11.7,12.1,23.4,24.5,35.8,35.8c10.7,9.7,22.2,18.5,33.8,27
    c9.6,6.9,19.6,13.3,29.9,19c7.3,4.1,15.2,7.2,23.8,7.9c10.4,0.9,19.4-2.9,28.1-7.5c18.1-9.6,35.1-20.8,50.5-34.4
    c15.7-13.9,31.5-27.8,45.8-43.1c14.5-15.6,27.5-32.7,40.6-49.6c6.2-8,11.4-16.9,16.6-25.6c6-9.9,11.8-19.9,17.1-30.1
    c8.5-16.6,16.1-33.8,20.8-51.7c6.4-23.8,9.3-48,6.9-72.8c-1.8-19.1-7.9-36.6-18.9-52.3c-5.4-7.8-10.9-15.8-17.6-22.4
    c-8.7-8.4-18.3-15.8-29.4-21.1C397.9,54,385.3,51.1,369.4,51.6z"
  />
</svg>