<?xml version="1.0" encoding="utf-8"?>

<svg version="1.1" class="icon-btn" xmlns="http://www.w3.org/2000/svg" xmlns:xlink="http://www.w3.org/1999/xlink" x="0px" y="0px" viewBox="0 0 512 512" xml:space="preserve">
  <path d="M428.5,204.2c28.7,0,51.9,23.2,51.9,51.9S457.2,308,428.5,308s-51.9-23.2-51.9-51.9S399.8,204.2,428.5,204.2z M256.1,204.2
    c28.7,0,51.9,23.2,51.9,51.9S284.8,308,256.1,308s-51.9-23.2-51.9-51.9S227.4,204.2,256.1,204.2z M83.7,204.2
    c28.7,0,51.9,23.2,51.9,51.9S112.4,308,83.7,308s-51.9-23.2-51.9-51.9S55,204.2,83.7,204.2z"
  />
</svg>
