<?xml version="1.0" encoding="utf-8"?>

<svg version="1.1" class="icon-btn" xmlns="http://www.w3.org/2000/svg" xmlns:xlink="http://www.w3.org/1999/xlink" x="0px" y="0px" viewBox="0 0 512 512" xml:space="preserve">
  <path d="M443.1,397.2c-5.3-9.9-10.7-19-14.6-28.2c-19.6-44-26.9-90.2-29.9-137.4c-1.4-19.6-0.6-39.2-2.3-58.8
    C387.8,82,285.6,25,198.4,63.3c-53.2,23.4-81.5,64.5-83.5,120.3c-1.4,34.8-2,69.6-8,104.1c-6.3,37.7-16.6,74.4-37.6,107.6
    c-0.4,0.6-0.4,1.3-0.6,2.5C193.7,397.2,318.3,397.2,443.1,397.2z M179.4,397.8c2.2,28.9,14.5,50.8,39.4,64.3
    c27.6,14.9,55.2,13.6,81.1-4.3c20.6-14,31.1-34.6,32.4-60C279.7,397.8,232,397.8,179.4,397.8z"
  />
</svg>
