<?xml version="1.0" encoding="utf-8"?>

<svg version="1.1" class="icon-btn" xmlns="http://www.w3.org/2000/svg" xmlns:xlink="http://www.w3.org/1999/xlink" x="0px" y="0px" viewBox="0 0 512 512" xml:space="preserve">
  <path d="M265,57.5l58.8,119.1c1.5,3,4.3,5,7.5,5.5l131.4,19.1c8.2,1.2,11.5,11.3,5.5,17.1l-95.1,92.7
    c-2.4,2.3-3.4,5.6-2.9,8.9l22.5,130.9c1.4,8.2-7.2,14.4-14.5,10.5l-117.5-61.8c-2.9-1.5-6.4-1.5-9.3,0l-117.5,61.8
    c-7.3,3.9-15.9-2.4-14.5-10.5l22.5-130.9c0.6-3.2-0.5-6.6-2.9-8.9l-95.1-92.7c-5.9-5.8-2.7-15.9,5.5-17.1L180.7,182
    c3.3-0.5,6.1-2.5,7.5-5.5L247,57.5C250.7,50,261.3,50,265,57.5z"
  />
</svg>
