<?xml version="1.0" encoding="utf-8"?>

<svg version="1.1" class="icon" xmlns="http://www.w3.org/2000/svg" xmlns:xlink="http://www.w3.org/1999/xlink" x="0px" y="0px" viewBox="0 0 512 512" xml:space="preserve">
  <path d="M402.8,187.9H109.2c-5.5,0-10-3.9-10-8.6v-39.7c0-19,17.9-34.4,40-34.4h233.6c22.1,0,40,15.4,40,34.4v39.7
    C412.8,184,408.3,187.9,402.8,187.9z M386.9,416.6V187.9H125.1v228.8c0,27.6,22.4,50,50,50H337C364.5,466.6,386.9,444.2,386.9,416.6
    z M292,45.4h-72.8c-22.1,0-40,23.2-40,51.7v8H332v-8C332,68.6,314.1,45.4,292,45.4z M202,266.9v120 M309.9,266.9v120"
  />
</svg>
